PathFileType	4	(X/Y/Z)	/Users/niels/Desktop/University/Third Semester/Perception and Action/Exam/Gymnastics Motion Tracking/Code for Gym Tracking/Analyzed Data/Webcam_Backflip/id4_5_pure_Sports2D/id4_5_pure_Sports2D_px_person00.trc
DataRate	CameraRate	NumFrames	NumMarkers	Units	OrigDataRate	OrigDataStartFrame	OrigNumFrames
29.81132075471698	29.81132075471698	11	22	m	29.81132075471698	19	159
Frame#	Time	Hip			RHip			RKnee			RAnkle			RBigToe			RSmallToe			RHeel			LHip			LKnee			LAnkle			LBigToe			LSmallToe			LHeel			Neck			Head			Nose			RShoulder			RElbow			RWrist			LShoulder			LElbow			LWrist		
		X1	Y1	Z1	X2	Y2	Z2	X3	Y3	Z3	X4	Y4	Z4	X5	Y5	Z5	X6	Y6	Z6	X7	Y7	Z7	X8	Y8	Z8	X9	Y9	Z9	X10	Y10	Z10	X11	Y11	Z11	X12	Y12	Z12	X13	Y13	Z13	X14	Y14	Z14	X15	Y15	Z15	X16	Y16	Z16	X17	Y17	Z17	X18	Y18	Z18	X19	Y19	Z19	X20	Y20	Z20	X21	Y21	Z21	X22	Y22	Z22
19	0.6373417721518987	0.9387135317061633	-0.5495772395292847	0.0	0.9340395891834994	-0.5484962128096196	0.0	0.9622123734389243	-0.658170482111978	0.0	0.9516392115041571	-0.7681616543627958	0.0	0.9853383067681873	-0.7922316510629244	0.0	0.9742057291980332	-0.7949917623678778	0.0	0.9427008326150648	-0.7839402260133753	0.0	0.9375640666878529	-0.5476306520473571	0.0	0.9615121909260406	-0.6580090215832743	0.0	0.9513886497880064	-0.7656647296034133	0.0	0.9887836686260901	-0.7886402736913583	0.0	0.9821548255556943	-0.7842118554686992	0.0	0.9411634911338314	-0.7816814698226201	0.0	1.0007255672709996	-0.4148522725780613	0.0	1.0487247403348756	-0.3646696708797339	0.0	1.0457185614158488	-0.3935241788730024	0.0	0.9932776633927763	-0.4187452607321103	0.0	0.9432207609545183	-0.40391385033141586	0.0	0.8943595207269589	-0.3884303510115093	0.0	0.9901965168925579	-0.41895922637584765	0.0	0.9490478088942884	-0.4090096039814128	0.0	0.9078269781030733	-0.3917667304894911	0.0
20	0.6708860759493671	0.9383162933301913	-0.5383102783972754	0.0	0.9333595917543127	-0.5379048063978971	0.0	0.9623446874249191	-0.6486169718560875	0.0	0.9530923433771623	-0.7593436060691466	0.0	0.9860059569836485	-0.785122059721928	0.0	0.9747046215217114	-0.7873848526405965	0.0	0.9436105675228809	-0.77473126901783	0.0	0.9355406441149182	-0.5365262907833745	0.0	0.9612374231125758	-0.6483289206825652	0.0	0.952948373673202	-0.757518697425089	0.0	0.9883191891152004	-0.7816725428245794	0.0	0.9821535536949879	-0.7764632872292593	0.0	0.9418102820050267	-0.7738572452932898	0.0	0.9995535139065559	-0.40416905699527444	0.0	1.0468774176358449	-0.3555671713051183	0.0	1.0435763762645507	-0.38293017494739456	0.0	0.9921157869251646	-0.40750863729456777	0.0	0.9415041944819147	-0.3828517805090444	0.0	0.8930584451933017	-0.35516030856162084	0.0	0.9888229097903554	-0.40715097965196057	0.0	0.9486290238698053	-0.3879856091936977	0.0	0.9076115323287754	-0.3595500847730444	0.0
21	0.7044303797468354	0.9365137244353509	-0.528305045467707	0.0	0.9317939086765495	-0.5285932155148767	0.0	0.963808978467573	-0.6399106318158682	0.0	0.9543971074635218	-0.7512962950046282	0.0	0.9869569180854341	-0.778523901972937	0.0	0.9757921703508897	-0.7803660906972701	0.0	0.944516636289286	-0.7661365017953692	0.0	0.9321687664922632	-0.5266163824579266	0.0	0.9620311300363067	-0.6393143855854574	0.0	0.9543857033942041	-0.7500042134888055	0.0	0.9874035177496134	-0.7752019353201757	0.0	0.9822151939802536	-0.7696922571237084	0.0	0.941915599776924	-0.7664348958007877	0.0	0.9985755809037876	-0.39591854738895754	0.0	1.0459254198072923	-0.34864143094831485	0.0	1.0420691021077857	-0.374681663734865	0.0	0.9910555002572806	-0.39901206309265097	0.0	0.9393995213010571	-0.3676648392050343	0.0	0.8908509999297188	-0.3313627804236083	0.0	0.9874905702196864	-0.3978849041187025	0.0	0.9464306231696851	-0.3723943940762828	0.0	0.9056420877386524	-0.33602818367792026	0.0
22	0.7379746835443037	0.9337618902131857	-0.5204760139088297	0.0	0.929387551660071	-0.5212481905598088	0.0	0.9664885558362796	-0.6324589683199681	0.0	0.9553743996193681	-0.7442045701062838	0.0	0.9879535350203282	-0.7726336682703161	0.0	0.9770970500256354	-0.7742446847713669	0.0	0.9452284732142385	-0.7583704724452569	0.0	0.9280505823185342	-0.5186904016007384	0.0	0.9638230508588856	-0.6313911424345674	0.0	0.9555352369105934	-0.7430775701027247	0.0	0.986044386247165	-0.7690821021667196	0.0	0.9821290181675275	-0.7639416844990435	0.0	0.9413946844813222	-0.759299755360527	0.0	0.9977363196861018	-0.39061513551430027	0.0	1.0460466961570147	-0.34409825771375185	0.0	1.041461400974521	-0.36927189126946636	0.0	0.9899826961539101	-0.3937088174600676	0.0	0.9363275568224616	-0.3589279299006373	0.0	0.8862893660288642	-0.317768813426109	0.0	0.9863806897237887	-0.3917426336118347	0.0	0.9425589161407039	-0.36312751098407314	0.0	0.9010373153699229	-0.32234824760824243	0.0
23	0.7715189873417722	0.9305467111841434	-0.5156596788467793	0.0	0.9263426723211217	-0.5165634218742198	0.0	0.9701041841865912	-0.6266269557175185	0.0	0.955897868111148	-0.738181229666383	0.0	0.9887825943277684	-0.767548996888985	0.0	0.9782708222603377	-0.7691552040773222	0.0	0.9455111075311691	-0.7516499832317465	0.0	0.9238215383138116	-0.513508805706658	0.0	0.9664210995047605	-0.6249691265703279	0.0	0.9562129222878039	-0.7367467341716366	0.0	0.984483915070123	-0.7632067777914802	0.0	0.9818051371598321	-0.7591373426156388	0.0	0.9402668119700937	-0.7524899303614221	0.0	0.9970148286799322	-0.3886725949764243	0.0	1.0470281271342468	-0.3421919295794527	0.0	1.041696194195591	-0.36702193870309163	0.0	0.9889615500853681	-0.3920392710223398	0.0	0.9320512127704993	-0.35707434802321686	0.0	0.8788521046752621	-0.31500201282093976	0.0	0.9856065914138545	-0.38924225377833915	0.0	0.937476616797834	-0.3609323250066224	0.0	0.8937680487589589	-0.31949583142959476	0.0
24	0.8050632911392405	0.9271968334076687	-0.5145392882325669	0.0	0.922978880935054	-0.515233794127886	0.0	0.9742697105698583	-0.622802124066762	0.0	0.9558864544801592	-0.733392115581366	0.0	0.9892834509983494	-0.7633630884734086	0.0	0.9790706419312548	-0.7651617249297287	0.0	0.9451775640208958	-0.7463071810672601	0.0	0.9199989853017115	-0.5117793519323108	0.0	0.969603951300704	-0.6204765240614113	0.0	0.9562538197687785	-0.7312222964519335	0.0	0.9831734152416631	-0.7578295639524975	0.0	0.9813969397970026	-0.7553433360321936	0.0	0.9386462964068678	-0.7463534389048355	0.0	0.9963646978974989	-0.3904248380317026	0.0	1.048307061614914	-0.3431574937378809	0.0	1.0424011847124788	-0.3681089039814374	0.0	0.9881347041827091	-0.3944950434790435	0.0	0.9269733053223321	-0.3627463036193758	0.0	0.8693676117887935	-0.3239344466549089	0.0	0.9851048364763172	-0.390875514555169	0.0	0.9318644362458991	-0.3663149782460993	0.0	0.8846507474878956	-0.3283369661596923	0.0
25	0.8386075949367088	0.9238753086613807	-0.5175741715299488	0.0	0.9196627293435362	-0.5178760768422034	0.0	0.9785774454712768	-0.6214490168374367	0.0	0.9552926975801633	-0.7302117986551153	0.0	0.989321042175556	-0.7603061451553373	0.0	0.9793464291532322	-0.7624386529028788	0.0	0.9441412226980752	-0.7428381338016057	0.0	0.9168699916653885	-0.5140953693085657	0.0	0.9731589247089587	-0.6184264281487879	0.0	0.9555696529385245	-0.7270512766817256	0.0	0.982557937821467	-0.7538167912263846	0.0	0.9811221159170957	-0.752892513587842	0.0	0.936715486130744	-0.7416277943801606	0.0	0.9957062434788307	-0.39607510807974067	0.0	1.0491392798553703	-0.3471636025585484	0.0	1.0430730282281837	-0.3726095084842424	0.0	0.987616875058821	-0.4014648477433716	0.0	0.9221926007240867	-0.3767354187636658	0.0	0.8601649065969452	-0.34550947590357106	0.0	0.9846331017525333	-0.3969931702441747	0.0	0.9266089472215452	-0.3794923507663333	0.0	0.8753924686536443	-0.3493955867405858	0.0
26	0.8721518987341772	0.9206724959554335	-0.5249631611824498	0.0	0.9167221816414712	-0.5249243378046594	0.0	0.9826574390418579	-0.6231593699289739	0.0	0.9540817872622849	-0.7293198587548897	0.0	0.9887586527700525	-0.7589111390169755	0.0	0.978968338199214	-0.761435538769792	0.0	0.9424103813577275	-0.7418867878273138	0.0	0.9145017651257241	-0.5208822993566119	0.0	0.9768115646139094	-0.6194842134829371	0.0	0.9541942396324815	-0.7251764868018188	0.0	0.9827506361341398	-0.7525202362843846	0.0	0.9810116997601986	-0.7524355251439342	0.0	0.9346299262339758	-0.739384181242155	0.0	0.994942153237456	-0.40560551986508137	0.0	1.0487319537954773	-0.3543130447755569	0.0	1.0431170729501655	-0.38050726515074196	0.0	0.9873629254941005	-0.41298305107258315	0.0	0.9192749257711371	-0.39944299526375454	0.0	0.8547552146072493	-0.37993694604615885	0.0	0.983908924205306	-0.4076654884299997	0.0	0.9228959335147218	-0.4004434874886941	0.0	0.8688376891770735	-0.3823911992576252	0.0
27	0.9056962025316455	0.9176912761835585	-0.5366815375620674	0.0	0.914366365003191	-0.5365421621499546	0.0	0.9861352006290761	-0.6286356461053089	0.0	0.9522703428118247	-0.7316393016571339	0.0	0.987488346612228	-0.7600853474463307	0.0	0.9778337578516572	-0.76294913986217	0.0	0.9400934191656852	-0.7442069721011778	0.0	0.9128758882830791	-0.5323276388903535	0.0	0.9801619273585109	-0.6244321920750335	0.0	0.9522821495184004	-0.7268063007304565	0.0	0.9833817978419649	-0.7551191073889088	0.0	0.9808645201457334	-0.7548729239641033	0.0	0.9324554975469025	-0.7408357367630548	0.0	0.9939243704564708	-0.41868602740692884	0.0	1.0463540856265245	-0.36454844710289463	0.0	1.041866307959379	-0.39160458131730164	0.0	0.987041102683513	-0.42856528563939306	0.0	0.9198292812169797	-0.4301540085685158	0.0	0.8570653982546326	-0.4255978724772354	0.0	0.9827448800729096	-0.422528382841544	0.0	0.9222377039098637	-0.42856174572435096	0.0	0.8688859431939873	-0.4254586530659257	0.0
28	0.9392405063291138	0.9150655402300782	-0.5525250471896622	0.0	0.9126264953853462	-0.5525603575026424	0.0	0.9885502198164351	-0.6385846085543079	0.0	0.9500243096323521	-0.738156617347525	0.0	0.9855304440701701	-0.7649831216546281	0.0	0.9759870693928642	-0.7680277343474878	0.0	0.9374499452625756	-0.7506101105091642	0.0	0.9120123902126492	-0.5483016623945242	0.0	0.9827918856820447	-0.6340681086985592	0.0	0.9500876250748013	-0.7331571277627277	0.0	0.9838744181981623	-0.7621345772242217	0.0	0.9803983778498774	-0.7611162259075782	0.0	0.9303477140616445	-0.7470995318837281	0.0	0.9923995080452589	-0.43464738615288645	0.0	1.0414822401133015	-0.37747946071140237	0.0	1.0387901036773763	-0.4053731409586552	0.0	0.9860636945267247	-0.44720657227151966	0.0	0.9251086689769636	-0.4664638230427977	0.0	0.8704768953876895	-0.4781462547794813	0.0	0.9810978164703874	-0.4407286354815771	0.0	0.926280166882772	-0.4618709882807597	0.0	0.8795665016261037	-0.47428484748902056	0.0
29	0.9727848101265822	0.9129143268571124	-0.5719775723010119	0.0	0.9113155201544338	-0.5723575197067208	0.0	0.9893923418678918	-0.6534735688795119	0.0	0.9476866813171826	-0.7496783849546859	0.0	0.9831570078742232	-0.7746126270077711	0.0	0.9737285678921488	-0.777638689566398	0.0	0.9348869452692843	-0.7617854928861674	0.0	0.9119271803340641	-0.5682261555467737	0.0	0.9843615706831959	-0.6489621423253017	0.0	0.9479487013052788	-0.7451096266142881	0.0	0.9838721104360485	-0.7736042501284675	0.0	0.9794137163178382	-0.7717856111882105	0.0	0.928708615583459	-0.7588346639332654	0.0	0.9900498808819418	-0.4525128438604144	0.0	1.033887049178486	-0.39226623406139116	0.0	1.033697298204067	-0.42085842403693413	0.0	0.9838043487456	-0.4674953676494346	0.0	0.9357122357309265	-0.5041647212458853	0.0	0.8967255181265473	-0.5303082349593248	0.0	0.979085603728011	-0.4610152201849291	0.0	0.9363479602844248	-0.496636049884887	0.0	0.9034735038111021	-0.5219559942487682	0.0
